<?xml version="1.0" standalone="no"?>
<!DOCTYPE svg PUBLIC "-//W3C//DTD SVG 20010904//EN"
 "http://www.w3.org/TR/2001/REC-SVG-20010904/DTD/svg10.dtd">
<svg version="1.0" xmlns="http://www.w3.org/2000/svg"
 width="1280.000000pt" height="905.000000pt" viewBox="0 0 1280.000000 905.000000"
 preserveAspectRatio="xMidYMid meet">

<g transform="translate(0.000000,905.000000) scale(0.100000,-0.100000)"
fill="#000000" stroke="none">
<path d="M1020 7171 c0 -5 58 -154 128 -332 71 -178 165 -416 210 -529 44
-113 126 -321 182 -462 l102 -258 1933 -2 1933 -3 -52 -132 -51 -133 -1357 0
c-747 0 -1358 -2 -1358 -5 0 -2 20 -55 44 -117 24 -62 101 -261 171 -443 113
-297 159 -416 341 -885 l52 -135 741 -3 c408 -1 741 -5 741 -7 0 -3 -23 -64
-51 -135 l-51 -130 -633 0 -634 0 13 -37 c12 -33 171 -433 507 -1278 44 -110
87 -217 96 -238 l16 -37 2840 2 2839 3 74 190 c41 105 104 264 139 355 36 91
141 361 234 600 l170 435 -1823 5 -1823 5 33 85 c110 285 224 579 317 815 58
149 122 313 142 365 98 253 130 335 175 450 27 69 73 188 103 265 l54 140 817
3 817 2 -7 -22 c-4 -13 -40 -108 -81 -213 -41 -104 -87 -224 -103 -265 -16
-41 -61 -156 -100 -254 -38 -99 -70 -183 -70 -188 0 -4 451 -8 1003 -8 l1002
0 37 93 c20 50 88 225 151 387 139 357 551 1415 635 1630 139 356 162 414 162
422 0 4 -2421 8 -5380 8 -3056 0 -5380 -4 -5380 -9z"/>
</g>
</svg>
